PathFileType	4	(x/y/z)	A01_FAST_T0022.trc
DataRate	CameraRate	NumFrames	NumMarkers	Units	OrigDataRate	OrigDataStartFrame	OrigNumFrames
240	240	4	48	mm	240	150	299
Frame#	Time	TOP_HEAD			R_AC			L_AC			R_ASIS			L_ASIS			R_PSIS			L_PSIS			SACRAL			L_IC			R_IC			L_GT			R_GT			R_LAT_KNEE			R_MED_KNEE			L_MED_KNEE			L_LAT_KNEE			R_TOE			L_TOE			R_1ST_MET			L_1ST_MET			L_5TH_MET			R_5TH_MET			R_LAT_ANK			R_MED_ANK			L_MED_ANK			L_LAT_ANK			L_HEEL_SUP			R_HEEL_SUP			L_HEEL_LAT			R_HEEL_LAT			L_HEEL_MED			R_HEEL_MED			R_LL_PROX_POST			R_LL_PROX_ANT			R_LL_DIST_ANT			R_LL_DIST_POST			R_THIGH_PROX_POST			R_THIGH_PROX_ANT			R_THIGH_DIST_ANT			R_THIGH_DIST_POST			L_PROS_PROX_ANT			L_PROS_PROX_POST			L_PROS_DIST_POST			L_PROS_DIST_ANT			L_THIGH_PROX_ANT			L_THIGH_PROX_POST			L_THIGH_DIST_POST			L_THIGH_DIST_ANT			
		X1	Y1	Z1	X2	Y2	Z2	X3	Y3	Z3	X4	Y4	Z4	X5	Y5	Z5	X6	Y6	Z6	X7	Y7	Z7	X8	Y8	Z8	X9	Y9	Z9	X10	Y10	Z10	X11	Y11	Z11	X12	Y12	Z12	X13	Y13	Z13	X14	Y14	Z14	X15	Y15	Z15	X16	Y16	Z16	X17	Y17	Z17	X18	Y18	Z18	X19	Y19	Z19	X20	Y20	Z20	X21	Y21	Z21	X22	Y22	Z22	X23	Y23	Z23	X24	Y24	Z24	X25	Y25	Z25	X26	Y26	Z26	X27	Y27	Z27	X28	Y28	Z28	X29	Y29	Z29	X30	Y30	Z30	X31	Y31	Z31	X32	Y32	Z32	X33	Y33	Z33	X34	Y34	Z34	X35	Y35	Z35	X36	Y36	Z36	X37	Y37	Z37	X38	Y38	Z38	X39	Y39	Z39	X40	Y40	Z40	X41	Y41	Z41	X42	Y42	Z42	X43	Y43	Z43	X44	Y44	Z44	X45	Y45	Z45	X46	Y46	Z46	X47	Y47	Z47	X48	Y48	Z48	

150	0.62292	298.21	1728.1	301.42	82.582	1524.4	541.33	80.701	1531.8	88.766	73.627	1052.1	504.15	39.942	984.07	152.35	-151.33	1053.2	404.25	-152.24	1067	271.92	-170.31	1032	337.29	23.838	1121.6	119.8	31.212	1151.2	521.94	-45.321	918.45	120.77	28.559	939.86	552.48	158.28	554.08	472.64	172.52	564.21	339.65	-132.09	525.38	342.75	-153.6	536.71	187.12	543.21	207.97	367.94	-238.45	66.12	260.23	484.51	147.28	321.68	-319.89	60.885	318.45	-354.44	58.383	193.06	469.06	122.46	452.45	335.2	118.67	432.82	334.9	131.22	331.1	-400.03	173.11	304.3	-433.47	178.94	237.31	-539.66	158.64	282.23	265.01	43.669	373.87	-542.01	128.05	251.21	284.61	26.683	408.75	-531.18	125.53	314.76	288.81	24.989	348.66	144.2	352.56	472.28	212.49	373.16	490.44	244.97	307	471.64	194.74	286.58	460.66	36.74	789.5	529.89	97.184	830.3	533.79	128.74	746.45	519.26	71.542	708.29	511.96	-157.36	442.94	202.05	-204.85	471.3	192.41	-242.61	421.76	204.11	-192.98	400.25	211.34	-23.133	764.27	157.1	-88.836	789.92	143.7	-99.675	714.88	156.33	-39.66	692.72	168.45
151	0.6271	305.04	1727.1	301.9	89.71	1522.7	542.16	87.442	1530.7	89.609	81.652	1051.2	504.31	47.496	982.65	152.61	-143.7	1051.7	404.64	-144.61	1065.4	272.24	-162.6	1030.4	337.68	31.507	1120.2	120.18	39.106	1149.5	522.51	-37.849	917.04	120.99	37.06	938.9	552.6	167.44	553.67	472.33	180.94	563.64	339.48	-124.9	523.93	342.19	-146.28	535.36	186.57	549.27	201.62	365.16	-237.8	65.537	260.19	489.05	142.07	319.67	-319.07	61.437	318.44	-353.66	59.239	192.97	473.91	118.38	450.61	340.26	117.21	431.95	339.5	129.35	330.09	-397.47	175.18	304.04	-430.7	181.34	237.1	-537.04	162.54	281.98	267.89	44.168	373.62	-540.02	132.01	251.03	287.31	27.034	408.51	-529.12	129.4	314.61	290.96	24.775	348.37	152.11	352.47	472.49	220.77	372.56	489.89	252.52	306.13	470.89	202	286.07	460.49	45.605	788.77	530	105.96	829.8	533.44	137.7	746.07	518.85	80.601	707.67	511.94	-151.24	441.68	201.59	-198.35	470.62	191.91	-236.75	421.58	203.65	-187.41	399.45	210.93	-15.901	762.92	157.14	-81.58	788.63	143.71	-92.514	713.56	156.24	-32.468	691.36	168.33
152	0.63128	311.91	1726.1	302.35	96.843	1521	543.01	94.14	1529.5	90.431	89.631	1050.4	504.49	55.096	981.27	152.9	-136.1	1050.2	405.01	-136.97	1063.8	272.52	-154.89	1028.8	338.03	39.234	1118.8	120.57	47.002	1147.9	523.11	-30.286	915.63	121.23	45.516	938.06	552.75	176.57	553.38	472.06	189.28	563.17	339.31	-117.39	522.43	341.61	-138.62	533.97	185.99	555.16	194.87	362.62	-237.12	64.924	260.14	493.34	136.61	317.86	-318.19	62.048	318.42	-352.81	60.188	192.88	478.4	114.09	448.96	344.97	115.78	431.17	343.85	127.53	329.18	-394.69	177.39	303.77	-427.71	183.9	236.89	-534.17	166.7	281.73	270.41	44.814	373.42	-537.81	136.24	250.86	289.59	27.5	408.33	-526.85	133.53	314.46	292.72	24.702	348.15	159.91	352.53	472.72	228.92	372.07	489.36	259.92	305.37	470.19	209.11	285.69	460.35	54.41	788.14	530.14	114.67	829.4	533.09	146.58	745.78	518.45	89.59	707.15	511.94	-144.83	440.39	201.1	-191.55	469.92	191.38	-230.59	421.43	203.17	-181.56	398.65	210.5	-8.5113	761.6	157.18	-74.179	787.33	143.72	-85.155	712.23	156.14	-25.074	690.02	168.21
153	0.63546	318.82	1725.1	302.75	103.98	1519.3	543.89	100.8	1528.4	91.226	97.552	1049.8	504.7	62.736	979.95	153.24	-128.54	1048.9	405.35	-129.34	1062.2	272.75	-147.19	1027.3	338.36	47.014	1117.5	120.98	54.897	1146.3	523.75	-22.637	914.22	121.5	53.909	937.33	552.93	185.63	553.22	471.82	197.54	562.81	339.15	-109.53	520.88	341.01	-130.63	532.53	185.39	560.88	187.8	360.34	-236.39	64.282	260.1	497.4	130.99	316.26	-317.22	62.725	318.42	-351.88	61.24	192.78	482.53	109.65	447.52	349.37	114.41	430.48	347.95	125.79	328.37	-391.67	179.75	303.48	-424.48	186.62	236.67	-531.02	171.12	281.49	272.62	45.596	373.27	-535.36	140.75	250.69	291.51	28.072	408.2	-524.33	137.92	314.32	294.16	24.774	347.98	167.58	352.74	472.97	236.95	371.7	488.88	267.17	304.72	469.53	216.06	285.44	460.24	63.136	787.61	530.3	123.28	829.09	532.77	155.38	745.58	518.08	98.487	706.72	511.97	-138.11	439.09	200.58	-184.42	469.22	190.82	-224.13	421.29	202.66	-175.42	397.86	210.05	-0.96136	760.32	157.24	-66.631	786.02	143.75	-77.595	710.88	156.05	-17.471	688.7	168.08
